<?xml version="1.0" encoding="UTF-8"?>
<!DOCTYPE svg PUBLIC "-//W3C//DTD SVG 1.1//EN" "http://www.w3.org/Graphics/SVG/1.1/DTD/svg11.dtd">
<!-- Creator: CorelDRAW -->
<svg xmlns="http://www.w3.org/2000/svg" xml:space="preserve" width="256px" height="256px" shape-rendering="geometricPrecision" text-rendering="geometricPrecision" image-rendering="optimizeQuality" fill-rule="evenodd" clip-rule="evenodd"
viewBox="0 0 256 256">
 <g id="Ebene_x0020_1">
  <metadata id="CorelCorpID_0Corel-Layer"/>
  <path fill="#0093DD" d="M36.5033 4.03677l180.186 0c17.9582,0 32.6511,14.6929 32.6511,32.6511l0 180.186c0,17.9582 -14.6929,32.6511 -32.6511,32.6511l-180.186 0c-17.9582,0 -32.6511,-14.6929 -32.6511,-32.6511l0 -180.186c0,-17.9582 14.6929,-32.6511 32.6511,-32.6511z"/>
  <path fill="white" d="M126.596 60.8743c36.3933,0 65.9068,29.5135 65.9068,65.9068 0,36.3932 -29.5135,65.9068 -65.9068,65.9068 -36.3932,0 -65.9068,-29.5136 -65.9068,-65.9068 0,-36.3933 29.5136,-65.9068 65.9068,-65.9068z"/>
  <path fill="#667AB3" d="M126.596 70.6578c30.9908,0 56.1233,25.1324 56.1233,56.1233 0,30.9907 -25.1324,56.1232 -56.1233,56.1232 -30.9907,0 -56.1232,-25.1324 -56.1232,-56.1232 0,-30.9908 25.1324,-56.1233 56.1232,-56.1233z"/>
  <path fill="#1F1A17" d="M36.5033 4.03677l180.186 0c17.9582,0 32.6511,14.6929 32.6511,32.6511l0 180.186c0,17.9582 -14.6929,32.6511 -32.6511,32.6511l-180.186 0c-17.9582,0 -32.6511,-14.6929 -32.6511,-32.6511l0 -180.186c0,-17.9582 14.6929,-32.6511 32.6511,-32.6511zm0 5.5715l180.186 0c14.8938,0 27.0796,12.1858 27.0796,27.0796l0 180.186c0,14.8938 -12.1858,27.0796 -27.0796,27.0796l-180.186 0c-14.8938,0 -27.0796,-12.1858 -27.0796,-27.0796l0 -180.186c0,-14.8938 12.1858,-27.0796 27.0796,-27.0796z"/>
  <path fill="#1F1A17" stroke="#495677" stroke-width="0.09" d="M126.596 43.1375c46.1873,0 83.6436,37.4563 83.6436,83.6436 0,46.1871 -37.4563,83.6435 -83.6436,83.6435 -46.1871,0 -83.6435,-37.4563 -83.6435,-83.6435 0,-46.1873 37.4563,-83.6436 83.6435,-83.6436zm0 5.5715c43.1106,0 78.0721,34.9615 78.0721,78.0721 0,43.1106 -34.9615,78.072 -78.0721,78.072 -43.1106,0 -78.072,-34.9613 -78.072,-78.072 0,-43.1106 34.9613,-78.0721 78.072,-78.0721z"/>
  <path fill="#1F1A17" stroke="#495677" stroke-width="0.09" d="M126.596 60.8743c36.3932,0 65.9068,29.5136 65.9068,65.9068 0,36.3931 -29.5136,65.9068 -65.9068,65.9068 -36.3931,0 -65.9068,-29.5137 -65.9068,-65.9068 0,-36.3932 29.5137,-65.9068 65.9068,-65.9068zm0 4.39004c33.969,0 61.5168,27.5478 61.5168,61.5168 0,33.9689 -27.5478,61.5167 -61.5168,61.5167 -33.9689,0 -61.5167,-27.5478 -61.5167,-61.5167 0,-33.969 27.5478,-61.5168 61.5167,-61.5168z"/>
  <path fill="#495677" d="M147.211 74.5666c20.7938,8.21918 35.5086,28.5018 35.5086,52.2145 0,30.9908 -25.1324,56.1232 -56.1233,56.1232 -23.2176,0 -43.1463,-14.1069 -51.6829,-34.2145 0.474685,0.00944882 0.94878,0.0180709 1.42571,0.0180709 39.1764,0 70.9472,-31.7708 70.9472,-70.9471 0,-1.07079 -0.0281102,-2.13496 -0.0752362,-3.19417z"/>
  <path fill="#1F1A17" stroke="#495677" stroke-width="0.09" d="M126.596 96.1161c16.933,0 30.665,13.732 30.665,30.665 0,16.933 -13.732,30.6649 -30.665,30.6649 -16.933,0 -30.6649,-13.7319 -30.6649,-30.6649 0,-16.933 13.7319,-30.665 30.6649,-30.665zm0 -5.41276c19.9219,0 36.0777,16.1558 36.0777,36.0777 0,19.9218 -16.1558,36.0776 -36.0777,36.0776 -19.9218,0 -36.0776,-16.1558 -36.0776,-36.0776 0,-19.9219 16.1558,-36.0777 36.0776,-36.0777z"/>
  <polygon fill="white" points="199.525,53.4878 199.831,53.8151 200.086,54.1361 200.316,54.4748 200.524,54.8347 200.714,55.2197 200.887,55.6295 201.044,56.0638 201.187,56.5206 201.316,56.9998 201.434,57.5005 201.542,58.0182 201.644,58.5507 201.743,59.0986 201.841,59.6586 201.944,60.2286 202.054,60.8062 202.177,61.3943 202.32,61.991 202.489,62.5953 202.693,63.2056 202.941,63.8227 203.247,64.4417 203.62,65.0543 204.071,65.6473 204.604,66.2059 205.224,66.7105 205.916,67.1411 206.667,67.4863 207.463,67.7434 208.295,67.9145 209.159,68.0061 210.009,68.0234 210.858,68.0061 211.722,67.9145 212.553,67.7434 213.35,67.4863 214.102,67.1408 214.793,66.7105 215.411,66.2071 215.946,65.6482 216.397,65.0554 216.77,64.4442 217.075,63.8257 217.325,63.209 217.528,62.6003 217.698,61.9975 217.842,61.4027 217.967,60.814 218.078,60.236 218.181,59.668 218.279,59.1105 218.379,58.5643 218.482,58.0334 218.592,57.5179 218.711,57.0205 218.842,56.5427 218.985,56.0886 219.143,55.6576 219.317,55.2509 219.508,54.869 219.717,54.5113 219.948,54.1753 220.204,53.8583 220.513,53.5323 220.841,53.2257 221.161,52.9707 221.499,52.7412 221.859,52.5331 222.244,52.3432 222.654,52.1701 223.088,52.013 223.546,51.8704 224.024,51.7416 224.525,51.6235 225.042,51.5149 225.575,51.4127 226.123,51.3143 226.683,51.2157 227.253,51.1135 227.831,51.0032 228.419,50.8803 229.016,50.7369 229.619,50.5683 230.23,50.3641 230.847,50.1158 231.466,49.8101 232.078,49.4375 232.672,48.9868 233.231,48.4523 233.735,47.833 234.165,47.1421 234.511,46.3914 234.768,45.5946 234.939,44.7627 235.031,43.9003 235.049,43.0484 235.031,42.197 234.939,41.3343 234.768,40.5039 234.511,39.7061 234.165,38.955 233.735,38.2644 233.232,37.6471 232.673,37.1108 232.079,36.66 231.468,36.287 230.85,35.9821 230.234,35.7327 229.624,35.5288 229.022,35.3588 228.427,35.2154 227.839,35.0903 227.26,34.9797 226.693,34.8767 226.135,34.7777 225.589,34.6778 225.057,34.5749 224.542,34.4652 224.045,34.3462 223.568,34.2156 223.113,34.0723 222.683,33.9144 222.276,33.7403 221.894,33.5492 221.535,33.3397 221.2,33.1094 220.884,32.8539 220.558,32.5439 220.25,32.2154 219.995,31.8958 219.766,31.5582 219.557,31.1972 219.367,30.8121 219.195,30.403 219.038,29.97 218.896,29.5117 218.766,29.0313 218.648,28.5326 218.539,28.0159 218.437,27.4815 218.339,26.9339 218.24,26.375 218.138,25.8064 218.028,25.2259 217.904,24.6367 217.762,24.0403 217.592,23.4383 217.389,22.8271 217.139,22.2097 216.835,21.591 216.462,20.9804 216.012,20.3854 215.475,19.8256 214.858,19.322 214.167,18.8927 213.417,18.5465 212.619,18.2894 211.788,18.1182 210.925,18.0263 210.074,18.0083 209.222,18.0263 208.359,18.118 207.528,18.2894 206.731,18.5461 205.98,18.8922 205.289,19.3218 204.67,19.826 204.136,20.3837 203.685,20.977 203.312,21.589 203.007,22.2072 202.758,22.8223 202.553,23.433 202.383,24.0364 202.24,24.6317 202.116,25.2178 202.005,25.7955 201.902,26.3636 201.802,26.9222 201.703,27.4684 201.6,27.9989 201.49,28.5142 201.37,29.0131 201.24,29.49 201.097,29.9439 200.939,30.3751 200.765,30.7818 200.574,31.1629 200.364,31.5212 200.133,31.8572 199.878,32.1742 199.569,32.4992 199.241,32.8068 198.921,33.0617 198.582,33.2915 198.222,33.4999 197.837,33.6899 197.428,33.8629 196.994,34.0194 196.537,34.1615 196.056,34.2913 195.557,34.4092 195.04,34.5178 194.506,34.6198 193.958,34.7186 193.399,34.817 192.831,34.9187 192.251,35.0287 191.661,35.1527 191.065,35.2956 190.462,35.465 189.852,35.6684 189.234,35.9177 188.615,36.2226 188.004,36.5952 187.41,37.0453 186.85,37.5813 186.347,38.1989 185.916,38.8906 185.571,39.6414 185.314,40.4384 185.143,41.27 185.051,42.1336 185.034,42.9832 185.051,43.8337 185.143,44.6971 185.314,45.5296 185.571,46.3253 185.916,47.0766 186.347,47.7689 186.851,48.3881 187.409,48.9208 188,49.3715 188.613,49.7449 189.231,50.051 189.847,50.2997 190.457,50.5042 191.061,50.6741 191.657,50.8177 192.243,50.9413 192.82,51.0525 193.388,51.1552 193.947,51.255 194.493,51.3545 195.023,51.4575 195.538,51.5675 196.038,51.6871 196.515,51.8169 196.968,51.96 197.4,52.1183 197.807,52.2924 198.188,52.4827 198.545,52.6924 198.882,52.9237 199.2,53.1802 "/>
  <path fill="white" stroke="white" stroke-width="0.09" d="M201.502 51.5238c4.96063,4.88032 0.960591,13.8444 8.50666,13.7132 7.54666,0.13063 3.54567,-8.83418 8.54055,-13.682 4.88043,-4.96063 13.8444,-0.960591 13.7132,-8.50666 0.130748,-7.54666 -8.83418,-3.54567 -13.682,-8.54055 -4.96063,-4.88043 -0.960473,-13.8444 -8.50654,-13.7132 -7.54666,-0.130748 -3.54579,8.83418 -8.54067,13.682 -4.88032,4.96063 -13.8444,0.960473 -13.7132,8.50654 -0.13063,7.54666 8.83418,3.54579 13.682,8.54067z"/>
  <path fill="#1F1A17" d="M203.479 49.5599l0.571654 0.611457 0.526299 0.660236 0.461575 0.680788 0.400866 0.692599 0.343228 0.696969 0.293622 0.695079 0.249331 0.68941 0.21248 0.680906 0.179764 0.669095 0.15378 0.651024 0.13311 0.63378 0.117284 0.61311 0.105591 0.588071 0.0992126 0.561142 0.0949607 0.531496 0.095315 0.498662 0.0960237 0.459921 0.100039 0.416693 0.103937 0.370866 0.106654 0.319488 0.106772 0.264921 0.102992 0.208937 0.0959055 0.157441 0.0859843 0.113386 0.0772441 0.0804331 0.0754725 0.0615355 0.0930709 0.0579921 0.131457 0.0604725 0.190866 0.0615355 0.268228 0.0551575 0.357992 0.0381496 0.498662 0.0100394 0.498071 -0.0100394 0.357638 -0.0381496 0.268583 -0.0551575 0.191339 -0.0615355 0.130748 -0.0602362 0.0933071 -0.0582284 0.077126 -0.0625984 0.0768898 -0.0801969 0.0858662 -0.11315 0.0966142 -0.158268 0.10311 -0.208937 0.107244 -0.265158 0.107244 -0.320079 0.104764 -0.371102 0.100276 -0.417047 0.097441 -0.45874 0.0950788 -0.496772 0.096378 -0.531732 0.0999213 -0.561378 0.107244 -0.588071 0.118465 -0.611811 0.135354 -0.633425 0.155787 -0.65126 0.18248 -0.667205 0.213898 -0.679725 0.252992 -0.689528 0.296929 -0.694252 0.347599 -0.694961 0.403937 -0.689764 0.466417 -0.678662 0.53126 -0.658583 0.576614 -0.607205 0.609567 -0.570827 0.661063 -0.526772 0.681024 -0.461929 0.693189 -0.400866 0.695788 -0.343228 0.69567 -0.293858 0.689764 -0.249095 0.680551 -0.212244 0.668032 -0.18 0.651614 -0.15378 0.63378 -0.13311 0.613347 -0.117284 0.587835 -0.105591 0.561378 -0.0992126 0.531732 -0.0949607 0.498898 -0.095315 0.459095 -0.0960237 0.416575 -0.100039 0.370748 -0.103937 0.320315 -0.106654 0.264449 -0.106772 0.209173 -0.102992 0.157677 -0.0961418 0.113622 -0.0863386 0.0797244 -0.076063 0.0612992 -0.0754725 0.0587008 -0.0941339 0.0608268 -0.131811 0.0609449 -0.190039 0.0553937 -0.269055 0.0382677 -0.358819 0.0108661 -0.497008 -0.0108661 -0.496417 -0.0379134 -0.358465 -0.055748 -0.26941 -0.0612992 -0.190512 -0.0604725 -0.130984 -0.0587008 -0.0944882 -0.0629528 -0.0773622 -0.0791339 -0.076063 -0.112559 -0.0852756 -0.158504 -0.0966142 -0.210354 -0.103937 -0.264685 -0.107244 -0.319725 -0.107008 -0.371339 -0.104764 -0.417047 -0.100512 -0.457677 -0.0972048 -0.497244 -0.0950788 -0.531851 -0.096378 -0.561614 -0.0999213 -0.58748 -0.107244 -0.612638 -0.118465 -0.63378 -0.135354 -0.651614 -0.155787 -0.666024 -0.18248 -0.679725 -0.213898 -0.689764 -0.253228 -0.694252 -0.296693 -0.694134 -0.347599 -0.690355 -0.403937 -0.678898 -0.466654 -0.659055 -0.531851 -0.605669 -0.575788 -0.570827 -0.60874 -0.527362 -0.661536 -0.462638 -0.681378 -0.399803 -0.692599 -0.344055 -0.695906 -0.293858 -0.696142 -0.249921 -0.690827 -0.211181 -0.680079 -0.179882 -0.666024 -0.154134 -0.653032 -0.13311 -0.634252 -0.117047 -0.612402 -0.106063 -0.587717 -0.0989764 -0.562795 -0.0955512 -0.532914 -0.0938977 -0.49689 -0.0966142 -0.457795 -0.100039 -0.417047 -0.104173 -0.371811 -0.106654 -0.319843 -0.106417 -0.264095 -0.103346 -0.209764 -0.0969685 -0.15874 -0.0852756 -0.112559 -0.0754725 -0.0788977 -0.0766536 -0.0623622 -0.0943701 -0.0588189 -0.130984 -0.0604725 -0.189921 -0.0609449 -0.269173 -0.055748 -0.358465 -0.0379134 -0.496417 -0.0108661 -0.497244 0.0108661 -0.358819 0.0382677 -0.269173 0.0553937 -0.190276 0.0612992 -0.132047 0.0607087 -0.0938977 0.0584646 -0.0759449 0.0618898 -0.0768898 0.0801969 -0.0864567 0.11374 -0.0957874 0.157323 -0.104173 0.210354 -0.107244 0.265158 -0.107008 0.319252 -0.104173 0.369921 -0.100276 0.416575 -0.0969685 0.459567 -0.0961418 0.498662 -0.0960237 0.53126 -0.100276 0.560788 -0.106772 0.58748 -0.119173 0.614055 -0.135118 0.632953 -0.155787 0.649843 -0.181654 0.666378 -0.214961 0.681142 -0.252402 0.688583 -0.297047 0.694252 -0.347362 0.695315 -0.404764 0.690355 -0.465473 0.678071 -0.531496 0.658465 -0.575906 0.606496 -0.610276 0.571654 -0.661063 0.526772 -0.681142 0.462165 -0.692244 0.400039 -0.696732 0.344291 -0.69567 0.293386 -0.690591 0.250158 -0.680197 0.211181 -0.667205 0.179882 -0.652441 0.154134 -0.634606 0.13311 -0.611457 0.117047 -0.588425 0.106063 -0.562087 0.0989764 -0.532914 0.0955512 -0.496772 0.0938977 -0.458504 0.0966142 -0.417284 0.100039 -0.371693 0.104173 -0.319488 0.106417 -0.264331 0.106654 -0.209528 0.103346 -0.158504 0.0967323 -0.112323 0.0851575 -0.0796063 0.0764173 -0.0627166 0.0765355 -0.057874 0.0933071 -0.0602362 0.130748 -0.0615355 0.190748 -0.0551575 0.268347 -0.0381496 0.357638 -0.0100394 0.498071 0.0100394 0.499016 0.0381496 0.357874 0.0551575 0.268347 0.0615355 0.191102 0.0607087 0.131693 0.0577559 0.0928347 0.0615355 0.0754725 0.0812599 0.0779528 0.114567 0.0869292 0.15685 0.0959055 0.208937 0.103346 0.265984 0.107244 0.319252 0.10748 0.369685 0.103701 0.416221 0.100512 0.460984 0.0969685 0.498189 0.0961418 0.531142 0.0960237 0.560551 0.100276 0.588071 0.106772 0.612874 0.119173 0.633189 0.135118 0.64937 0.155787 0.667795 0.181654 0.680788 0.214961 0.688347 0.252402 0.694252 0.296693 0.696142 0.347953 0.689764 0.404764 0.677835 0.465236 0.657638 0.530669 0.608386 0.576732zm-3.95457 3.92788l0.305787 0.327284 0.255473 0.321024 0.229843 0.33874 0.20811 0.359882 0.189921 0.385039 0.173386 0.409725 0.156732 0.434291 0.142441 0.456851 0.128976 0.479173 0.11811 0.500669 0.108661 0.517795 0.102165 0.532441 0.0983859 0.547914 0.0986221 0.559961 0.102165 0.57 0.110315 0.577677 0.122953 0.588071 0.143386 0.596693 0.168543 0.604252 0.204213 0.610394 0.248268 0.617008 0.305787 0.619016 0.372756 0.612638 0.451063 0.593032 0.533504 0.558543 0.619252 0.504567 0.692008 0.43063 0.750945 0.345236 0.795945 0.257126 0.832677 0.171024 0.863268 0.0916536 0.850276 0.0172441 0.849685 -0.0172441 0.863504 -0.0916536 0.83126 -0.171024 0.797008 -0.257126 0.751418 -0.345473 0.691654 -0.430394 0.617599 -0.503386 0.535394 -0.558898 0.450236 -0.592795 0.372992 -0.611221 0.305906 -0.618425 0.249331 -0.616772 0.203622 -0.608622 0.169961 -0.602835 0.14374 -0.594803 0.124724 -0.588662 0.110669 -0.578032 0.102992 -0.567992 0.0989764 -0.55748 0.0999213 -0.54626 0.102874 -0.530906 0.109724 -0.515433 0.118937 -0.49748 0.13063 -0.477756 0.143268 -0.454134 0.15815 -0.430984 0.173858 -0.406654 0.191102 -0.381969 0.209528 -0.357638 0.230669 -0.336024 0.255945 -0.317008 0.309213 -0.325984 0.327638 -0.306614 0.320079 -0.255 0.337913 -0.229488 0.360473 -0.20811 0.385039 -0.189921 0.409725 -0.173032 0.434055 -0.157087 0.457677 -0.142677 0.478583 -0.12874 0.500079 -0.11811 0.517323 -0.108661 0.53315 -0.102165 0.547795 -0.0983859 0.560197 -0.0986221 0.569646 -0.102165 0.578622 -0.110315 0.587835 -0.122953 0.596929 -0.143386 0.603189 -0.168543 0.61063 -0.204213 0.617008 -0.248268 0.619252 -0.305787 0.611811 -0.37252 0.593858 -0.450709 0.558898 -0.534567 0.504685 -0.619252 0.429331 -0.690945 0.345945 -0.750709 0.257126 -0.796772 0.171378 -0.831851 0.0916536 -0.862441 0.0180709 -0.851929 -0.0180709 -0.851339 -0.0918898 -0.862677 -0.171142 -0.830433 -0.256772 -0.797835 -0.346299 -0.751063 -0.429331 -0.690591 -0.503032 -0.617362 -0.558898 -0.536221 -0.594449 -0.450827 -0.610866 -0.372992 -0.618189 -0.304961 -0.615709 -0.249331 -0.61004 -0.203976 -0.602008 -0.169961 -0.594803 -0.143386 -0.588071 -0.125079 -0.579095 -0.110669 -0.56752 -0.102992 -0.557717 -0.0989764 -0.54626 -0.0999213 -0.531851 -0.102874 -0.514488 -0.109724 -0.497244 -0.118937 -0.477166 -0.13063 -0.455197 -0.143268 -0.430158 -0.157913 -0.406772 -0.174095 -0.382205 -0.191102 -0.358228 -0.209528 -0.335079 -0.230315 -0.316536 -0.255473 -0.325866 -0.310039 -0.308386 -0.328465 -0.25441 -0.319606 -0.229252 -0.337559 -0.208583 -0.361063 -0.190276 -0.385039 -0.172441 -0.409134 -0.15685 -0.432992 -0.142087 -0.458268 -0.129803 -0.480473 -0.117874 -0.498662 -0.108661 -0.516732 -0.101929 -0.534331 -0.0988583 -0.547677 -0.0983859 -0.558898 -0.101693 -0.568583 -0.109961 -0.580512 -0.124016 -0.589134 -0.142913 -0.596457 -0.16937 -0.602008 -0.203032 -0.611221 -0.249685 -0.617362 -0.304961 -0.618662 -0.372284 -0.61063 -0.450118 -0.59504 -0.536811 -0.559725 -0.617599 -0.503622 -0.690591 -0.429331 -0.750473 -0.346181 -0.797835 -0.257126 -0.830788 -0.171142 -0.862677 -0.0918898 -0.851339 -0.0180709 -0.852166 0.0180709 -0.862559 0.0916536 -0.831733 0.171378 -0.796536 0.256772 -0.751063 0.346063 -0.691063 0.429567 -0.61878 0.504213 -0.53374 0.557717 -0.451299 0.593268 -0.373228 0.612047 -0.305315 0.618189 -0.248858 0.615118 -0.205039 0.61063 -0.16937 0.603425 -0.14374 0.595276 -0.123661 0.586181 -0.111142 0.577677 -0.102756 0.56811 -0.0998032 0.558543 -0.0994488 0.54626 -0.102992 0.530433 -0.110079 0.515315 -0.119528 0.498898 -0.129803 0.476929 -0.14315 0.453898 -0.158268 0.431221 -0.173858 0.406654 -0.190866 0.381142 -0.209764 0.358228 -0.230906 0.336024 -0.255709 0.317008 -0.308386 0.325039 -0.328465 0.307559 -0.320079 0.254882 -0.338504 0.229843 -0.360118 0.208347 -0.385276 0.190039 -0.409252 0.173032 -0.433228 0.156496 -0.457441 0.142087 -0.481063 0.129803 -0.499252 0.117874 -0.516969 0.108661 -0.534095 0.101929 -0.547677 0.0988583 -0.55878 0.0983859 -0.568583 0.101693 -0.579685 0.109961 -0.589488 0.124016 -0.596221 0.142913 -0.603307 0.16937 -0.610394 0.203386 -0.617599 0.249331 -0.618425 0.304961 -0.611457 0.37252 -0.594213 0.450118 -0.55937 0.535984 -0.503386 0.617599 -0.430748 0.691772 -0.345473 0.750709 -0.257126 0.797008 -0.171024 0.831614 -0.0916536 0.863622 -0.0172441 0.849567 0.0172441 0.850512 0.0916536 0.863386 0.171024 0.832559 0.257126 0.795709 0.344882 0.751299 0.430984 0.692244 0.504567 0.619252 0.557717 0.532677 0.591378 0.450709 0.612638 0.373347 0.618425 0.306142 0.615945 0.24874 0.609449 0.204449 0.604252 0.169961 0.59563 0.143504 0.586418 0.123661 0.576614 0.111142 0.568583 0.102756 0.558307 0.0998032 0.54626 0.0994488 0.529843 0.102992 0.515669 0.110079 0.499488 0.119528 0.477166 0.129803 0.452953 0.14315 0.432047 0.158268 0.406772 0.174095 0.380788 0.190276 0.357756 0.209764 0.336732 0.23126 0.317835 0.256536 0.324921 0.307559z"/>
  <path fill="white" stroke="#495677" stroke-width="0.09" d="M126.596 96.1161c16.933,0 30.665,13.732 30.665,30.665 0,16.933 -13.732,30.6649 -30.665,30.6649 -16.933,0 -30.6649,-13.7319 -30.6649,-30.6649 0,-16.933 13.7319,-30.665 30.6649,-30.665z"/>
  <path fill="#495677" d="M126.596 101.484c13.969,0 25.2973,11.3283 25.2973,25.2973 0,13.9689 -11.3283,25.2972 -25.2973,25.2972 -13.9689,0 -25.2972,-11.3283 -25.2972,-25.2972 0,-13.969 11.3283,-25.2973 25.2972,-25.2973zm0 10.879c7.96181,0 14.4183,6.4565 14.4183,14.4183 0,7.9617 -6.4565,14.4183 -14.4183,14.4183 -7.9617,0 -14.4183,-6.45662 -14.4183,-14.4183 0,-7.96181 6.45662,-14.4183 14.4183,-14.4183z"/>
  <path fill="#667AB3" d="M126.596 112.363c7.9617,0 14.4183,6.45662 14.4183,14.4183 0,7.9617 -6.45662,14.4183 -14.4183,14.4183 -7.96158,0 -14.4183,-6.45662 -14.4183,-14.4183 0,-7.9617 6.45673,-14.4183 14.4183,-14.4183z"/>
  <path fill="white" d="M117.039 131.372c2.67567,0 4.84559,2.1698 4.84559,4.84547 0,2.67579 -2.16992,4.84559 -4.84559,4.84559 -2.67567,0 -4.84547,-2.1698 -4.84547,-4.84559 0,-2.67567 2.1698,-4.84547 4.84547,-4.84547z"/>
  <path fill="white" d="M135.419 110.572c4.38862,0 7.94752,3.5589 7.94752,7.94752 0,4.38851 -3.5589,7.94752 -7.94752,7.94752 -4.38851,0 -7.94752,-3.55902 -7.94752,-7.94752 0,-4.38862 3.55902,-7.94752 7.94752,-7.94752z"/>
 </g>
</svg>
